<?xml version="1.0" encoding="utf-8"?>
<!-- Generator: Adobe Illustrator 15.1.0, SVG Export Plug-In  -->
<!DOCTYPE svg PUBLIC "-//W3C//DTD SVG 1.1//EN" "http://www.w3.org/Graphics/SVG/1.1/DTD/svg11.dtd" [
	<!ENTITY ns_flows "http://ns.adobe.com/Flows/1.0/">
]>
<svg version="1.1"
	 xmlns="http://www.w3.org/2000/svg" xmlns:xlink="http://www.w3.org/1999/xlink" xmlns:a="http://ns.adobe.com/AdobeSVGViewerExtensions/3.0/"
	 x="0px" y="0px" width="48px" height="48px" viewBox="-8 -8 48 48" enable-background="new -8 -8 48 48" xml:space="preserve">
<defs>
</defs>
<path d="M16,2.9l13.4,26.7H2.6L16,2.9z M16,0c-0.7,0-1.4,0.5-1.9,1.4L0.4,28.6c-1,1.9-0.2,3.4,2,3.4h27.2c2.1,0,3-1.5,2-3.4l0,0
	L17.9,1.4C17.4,0.5,16.7,0,16,0L16,0L16,0z"/>
<path d="M18,26c0,1.1-0.9,2-2,2c-1.1,0-2-0.9-2-2s0.9-2,2-2C17.1,24,18,24.9,18,26z"/>
<path d="M16,22c-1.1,0-2-0.9-2-2v-6c0-1.1,0.9-2,2-2c1.1,0,2,0.9,2,2v6C18,21.1,17.1,22,16,22z"/>
</svg>
