<?xml version="1.0" encoding="utf-8"?>
<!-- Generator: Adobe Illustrator 15.1.0, SVG Export Plug-In  -->
<!DOCTYPE svg PUBLIC "-//W3C//DTD SVG 1.1//EN" "http://www.w3.org/Graphics/SVG/1.1/DTD/svg11.dtd" [
	<!ENTITY ns_flows "http://ns.adobe.com/Flows/1.0/">
]>
<svg version="1.1"
	 xmlns="http://www.w3.org/2000/svg" xmlns:xlink="http://www.w3.org/1999/xlink" xmlns:a="http://ns.adobe.com/AdobeSVGViewerExtensions/3.0/"
	 x="0px" y="0px" width="48px" height="48px" viewBox="-7 -7 48 48" enable-background="new -7 -7 48 48" xml:space="preserve">
<defs>
</defs>
<path display="none" d="M14.1,1L4.7,17l9.4,16l2.2-3.8l-5.6-9.6H33v-5.3H10.7l5.6-9.6L14.1,1z M0,1v32h3.1V1H0z"/>
<path d="M17.6,4.8l5.6,9.6H1v5.3h22.3l-5.6,9.6l2.2,3.8l9.4-16L19.9,1L17.6,4.8z M30.9,1v32H34V1H30.9z"/>
<path display="none" d="M4.8,16.4l9.6-5.6V33h5.3V10.7l9.6,5.6l3.8-2.2L17,4.7L1,14.1L4.8,16.4z M1,3.1h32V0H1V3.1z"/>
<path display="none" d="M1,19.9l16,9.4l16-9.4l-3.8-2.2l-9.6,5.6V1h-5.3v22.3l-9.6-5.6L1,19.9z M1,34h32v-3.1H1V34z"/>
</svg>
