<?xml version="1.0" encoding="utf-8"?>
<!-- Generator: Adobe Illustrator 15.1.0, SVG Export Plug-In  -->
<!DOCTYPE svg PUBLIC "-//W3C//DTD SVG 1.1//EN" "http://www.w3.org/Graphics/SVG/1.1/DTD/svg11.dtd" [
	<!ENTITY ns_flows "http://ns.adobe.com/Flows/1.0/">
]>
<svg version="1.1"
	 xmlns="http://www.w3.org/2000/svg" xmlns:xlink="http://www.w3.org/1999/xlink" xmlns:a="http://ns.adobe.com/AdobeSVGViewerExtensions/3.0/"
	 x="0px" y="0px" width="48px" height="48px" viewBox="-8 -8 48 48" enable-background="new -8 -8 48 48" xml:space="preserve">
<defs>
</defs>
<path display="none" d="M10.8,0.1v4.3h14L0.1,29.1l3,3L27.8,7.4v14h4.3V0.1H10.8z"/>
<path display="none" d="M0.1,21.4h4.3v-14l24.7,24.7l3-3L7.4,4.4h14V0.1H0.1V21.4z"/>
<path display="none" d="M21.4,32.1v-4.3h-14L32.1,3.1l-3-3L4.4,24.8v-14H0.1v21.3H21.4z"/>
<path display="none" d="M32.1,10.8h-4.3v14L3.1,0.1l-3,3l24.7,24.7h-14v4.3h21.3V10.8z"/>
<path display="none" d="M32.1,13.4H6.9l6.4-9.6l-2.5-3.8l-10.7,16l10.7,16l2.5-3.8l-6.4-9.6h25.2V13.4z"/>
<path display="none" d="M0.1,18.8h25.2l-6.4,9.6l2.5,3.8l10.7-16l-10.7-16l-2.5,3.8l6.4,9.6H0.1V18.8z"/>
<path display="none" d="M18.8,32.1V6.9l9.6,6.4l3.8-2.5l-16-10.7l-16,10.7l3.8,2.5l9.6-6.4v25.2H18.8z"/>
<path display="none" d="M13.4,0.1v25.2l-9.6-6.4l-3.8,2.5l16,10.7l16-10.7l-3.8-2.5l-9.6,6.4V0.1H13.4z"/>
<path display="none" d="M18.7,28.3V6.8l9.6,6.4l3.8-2.5L16,0L0,10.7l3.8,2.5l9.6-6.4v21.5H18.7z"/>
<path display="none" d="M13.3,3.4v21.8l-9.6-6.4L0,21.3L16,32l16-10.7l-3.8-2.5l-9.6,6.4V3.4H13.3z"/>
<path display="none" d="M28.3,13.3H6.8l6.4-9.6L10.7,0L0,16l10.7,16l2.5-3.8l-6.4-9.6h21.5V13.3z"/>
<path display="none" d="M3.4,18.7h21.8l-6.4,9.6l2.5,3.8L32,16L21.3,0l-2.5,3.8l6.4,9.6H3.4V18.7z"/>
<path d="M0.1,21.4h4.3v-14l24.7,24.7l3-3L7.4,4.4h14V0.1H0.1V21.4z"/>
<path d="M32.1,10.8h-4.3v14L3.1,0.1l-3,3l24.7,24.7h-14v4.3h21.3V10.8z"/>
<path display="none" d="M32.1,0.1H10.8v4.3h14L0.1,29.1l3,3L27.8,7.4v14h4.3V0.1z"/>
<path display="none" d="M0.1,32.1h21.3v-4.3h-14L32.1,3.1l-3-3L4.4,24.8v-14H0.1V32.1z"/>
</svg>
