<?xml version="1.0" encoding="utf-8"?>
<!-- Generator: Adobe Illustrator 15.1.0, SVG Export Plug-In  -->
<!DOCTYPE svg PUBLIC "-//W3C//DTD SVG 1.1//EN" "http://www.w3.org/Graphics/SVG/1.1/DTD/svg11.dtd" [
	<!ENTITY ns_flows "http://ns.adobe.com/Flows/1.0/">
]>
<svg version="1.1"
	 xmlns="http://www.w3.org/2000/svg" xmlns:xlink="http://www.w3.org/1999/xlink" xmlns:a="http://ns.adobe.com/AdobeSVGViewerExtensions/3.0/"
	 x="0px" y="0px" width="48px" height="48px" viewBox="-7 -7 48 48" enable-background="new -7 -7 48 48" xml:space="preserve">
<defs>
</defs>
<path display="none" d="M14,1L5,17l9,16l4-4l-5-8.8h20v-6.5H13L18,5L14,1z M0,1v32h3.1V1H0z"/>
<path d="M16,5l5,8.8H1v6.5h20L16,29l4,4l9-16L20,1L16,5z M30.9,1v32H34V1H30.9z"/>
<path display="none" d="M1,20l16,9l16-9l-4-4l-8.8,5V1h-6.5v20L5,16L1,20z M1,34h32v-3.1H1V34z"/>
<path display="none" d="M5,18l8.8-5v20h6.5V13l8.8,5l4-4L17,5L1,14L5,18z M1,3.1h32V0H1V3.1z"/>
</svg>
