<?xml version="1.0" encoding="utf-8"?>
<!-- Generator: Adobe Illustrator 15.1.0, SVG Export Plug-In  -->
<!DOCTYPE svg PUBLIC "-//W3C//DTD SVG 1.1//EN" "http://www.w3.org/Graphics/SVG/1.1/DTD/svg11.dtd" [
	<!ENTITY ns_flows "http://ns.adobe.com/Flows/1.0/">
]>
<svg version="1.1"
	 xmlns="http://www.w3.org/2000/svg" xmlns:xlink="http://www.w3.org/1999/xlink" xmlns:a="http://ns.adobe.com/AdobeSVGViewerExtensions/3.0/"
	 x="0px" y="0px" width="48px" height="48px" viewBox="-8 -8 48 48" enable-background="new -8 -8 48 48" xml:space="preserve">
<defs>
</defs>
<path d="M32,0H19l5,5l-6,6l3,3l6-6l5,5V0z"/>
<path d="M32,32V19l-5,5l-6-6l-3,3l6,6l-5,5H32z"/>
<path d="M0,32h13l-5-5l6-6l-3-3l-6,6l-5-5V32z"/>
<path d="M0,0v13l5-5l6,6l3-3L8,5l5-5H0z"/>
</svg>
