<?xml version="1.0" encoding="utf-8"?>
<!-- Generator: Adobe Illustrator 15.1.0, SVG Export Plug-In  -->
<!DOCTYPE svg PUBLIC "-//W3C//DTD SVG 1.1//EN" "http://www.w3.org/Graphics/SVG/1.1/DTD/svg11.dtd" [
	<!ENTITY ns_flows "http://ns.adobe.com/Flows/1.0/">
]>
<svg version="1.1"
	 xmlns="http://www.w3.org/2000/svg" xmlns:xlink="http://www.w3.org/1999/xlink" xmlns:a="http://ns.adobe.com/AdobeSVGViewerExtensions/3.0/"
	 x="0px" y="0px" width="48px" height="48px" viewBox="-8 -11 48 48" enable-background="new -8 -11 48 48" xml:space="preserve">
<defs>
</defs>
<path d="M30,4h-8V2c0-1.1-0.9-2-2-2h-8c-1.1,0-2,0.9-2,2v2H2C0.9,4,0,4.9,0,6v18c0,1.1,0.9,2,2,2h28c1.1,0,2-0.9,2-2V6
	C32,4.9,31.1,4,30,4z M12,2C12,2,12,2,12,2l8,0c0,0,0,0,0,0v2h-8V2L12,2z M30,12h-4v3c0,0.5-0.5,1-1,1h-2c-0.5,0-1-0.5-1-1v-3H10v3
	c0,0.5-0.5,1-1,1H7c-0.5,0-1-0.5-1-1v-3H2v-2h28V12z"/>
</svg>
