<?xml version="1.0" encoding="utf-8"?>
<!-- Generator: Adobe Illustrator 15.1.0, SVG Export Plug-In  -->
<!DOCTYPE svg PUBLIC "-//W3C//DTD SVG 1.1//EN" "http://www.w3.org/Graphics/SVG/1.1/DTD/svg11.dtd" [
	<!ENTITY ns_flows "http://ns.adobe.com/Flows/1.0/">
]>
<svg version="1.1"
	 xmlns="http://www.w3.org/2000/svg" xmlns:xlink="http://www.w3.org/1999/xlink" xmlns:a="http://ns.adobe.com/AdobeSVGViewerExtensions/3.0/"
	 x="0px" y="0px" width="48px" height="48px" viewBox="-8 -8 48 48" enable-background="new -8 -8 48 48" xml:space="preserve">
<defs>
</defs>
<path d="M27.3,4.7c-3-3-7-4.7-11.3-4.7S7.7,1.7,4.7,4.7c-3,3-4.7,7-4.7,11.3c0,4.3,1.7,8.3,4.7,11.3c3,3,7,4.7,11.3,4.7
	s8.3-1.7,11.3-4.7c3-3,4.7-7,4.7-11.3C32,11.7,30.3,7.7,27.3,4.7L27.3,4.7z M28,16c0,2.6-0.8,5-2.2,6.9L9.1,6.2C11,4.8,13.4,4,16,4
	C22.6,4,28,9.4,28,16z M4,16c0-2.6,0.8-5,2.2-6.9l16.7,16.7C21,27.2,18.6,28,16,28C9.4,28,4,22.6,4,16z"/>
</svg>
