<?xml version="1.0" encoding="utf-8"?>
<!-- Generator: Adobe Illustrator 15.1.0, SVG Export Plug-In  -->
<!DOCTYPE svg PUBLIC "-//W3C//DTD SVG 1.1//EN" "http://www.w3.org/Graphics/SVG/1.1/DTD/svg11.dtd" [
	<!ENTITY ns_flows "http://ns.adobe.com/Flows/1.0/">
]>
<svg version="1.1"
	 xmlns="http://www.w3.org/2000/svg" xmlns:xlink="http://www.w3.org/1999/xlink" xmlns:a="http://ns.adobe.com/AdobeSVGViewerExtensions/3.0/"
	 x="0px" y="0px" width="48px" height="48px" viewBox="-8 -8 48 48" enable-background="new -8 -8 48 48" xml:space="preserve">
<defs>
</defs>
<path d="M9.6,25.6c-1.8,0-3.2,1.4-3.2,3.2c0,1.8,1.4,3.2,3.2,3.2c1.8,0,3.2-1.4,3.2-3.2C12.8,27,11.4,25.6,9.6,25.6z M0,0v3.2h3.2
	L9,15.3l-2.2,3.9c-0.2,0.5-0.4,1-0.4,1.5c0,1.8,1.4,3.2,3.2,3.2h19.2v-3.2H10.3c-0.2,0-0.4-0.2-0.4-0.4c0-0.1,0-0.1,0-0.2l1.4-2.6
	h11.9c1.2,0,2.2-0.7,2.8-1.6l5.7-10.4C31.9,5.3,32,5.1,32,4.8c0-0.9-0.7-1.6-1.6-1.6H6.7L5.2,0H0z M25.6,25.6
	c-1.8,0-3.2,1.4-3.2,3.2c0,1.8,1.4,3.2,3.2,3.2c1.8,0,3.2-1.4,3.2-3.2C28.8,27,27.4,25.6,25.6,25.6z"/>
</svg>
