<?xml version="1.0" encoding="utf-8"?>
<!-- Generator: Adobe Illustrator 15.1.0, SVG Export Plug-In  -->
<!DOCTYPE svg PUBLIC "-//W3C//DTD SVG 1.1//EN" "http://www.w3.org/Graphics/SVG/1.1/DTD/svg11.dtd" [
	<!ENTITY ns_flows "http://ns.adobe.com/Flows/1.0/">
]>
<svg version="1.1"
	 xmlns="http://www.w3.org/2000/svg" xmlns:xlink="http://www.w3.org/1999/xlink" xmlns:a="http://ns.adobe.com/AdobeSVGViewerExtensions/3.0/"
	 x="0px" y="0px" width="48px" height="48px" viewBox="-9 -8 48 48" enable-background="new -9 -8 48 48" xml:space="preserve">
<defs>
</defs>
<path d="M20,4h-4V2c0-1.1-0.9-2-2-2h-4C8.9,0,8,0.9,8,2v2H4v4h16V4z M14,4h-4V2c0,0,0,0,0,0h4c0,0,0,0,0,0V4z M24,10V5
	c0-0.5-0.5-1-1-1h-2v2h1v4h-6l-6,6v8H2V6h1V4H1C0.5,4,0,4.5,0,5v20c0,0.5,0.5,1,1,1h9v6h20V10H24z M16,12.8V16h-3.2L16,12.8z M28,30
	H12V18h6v-6h10V30z"/>
</svg>
