<?xml version="1.0" encoding="utf-8"?>
<!-- Generator: Adobe Illustrator 15.1.0, SVG Export Plug-In  -->
<!DOCTYPE svg PUBLIC "-//W3C//DTD SVG 1.1//EN" "http://www.w3.org/Graphics/SVG/1.1/DTD/svg11.dtd" [
	<!ENTITY ns_flows "http://ns.adobe.com/Flows/1.0/">
]>
<svg version="1.1"
	 xmlns="http://www.w3.org/2000/svg" xmlns:xlink="http://www.w3.org/1999/xlink" xmlns:a="http://ns.adobe.com/AdobeSVGViewerExtensions/3.0/"
	 x="0px" y="0px" width="48px" height="48px" viewBox="-8 -8 48 48" enable-background="new -8 -8 48 48" xml:space="preserve">
<defs>
</defs>
<path d="M31.7,25.7C31.7,25.7,31.7,25.7,31.7,25.7L22,16l9.7-9.7c0,0,0,0,0,0c0.1-0.1,0.2-0.2,0.2-0.4c0.1-0.4,0.1-0.8-0.2-1.1
	l-4.6-4.6c-0.3-0.3-0.7-0.4-1.1-0.2c-0.1,0-0.3,0.1-0.4,0.2c0,0,0,0,0,0L16,10L6.3,0.3c0,0,0,0,0,0C6.2,0.2,6.1,0.1,5.9,0.1
	C5.6-0.1,5.2,0,4.9,0.3L0.3,4.9C0,5.2-0.1,5.6,0.1,5.9c0,0.1,0.1,0.3,0.2,0.4c0,0,0,0,0,0L10,16l-9.7,9.7h0
	c-0.1,0.1-0.2,0.2-0.2,0.4c-0.1,0.4-0.1,0.8,0.2,1.1l4.6,4.6c0.3,0.3,0.7,0.4,1.1,0.2c0.1,0,0.3-0.1,0.4-0.2h0L16,22l9.7,9.7
	c0,0,0,0,0,0c0.1,0.1,0.2,0.2,0.4,0.2c0.4,0.1,0.8,0.1,1.1-0.2l4.6-4.6c0.3-0.3,0.4-0.7,0.2-1.1C31.9,25.9,31.8,25.8,31.7,25.7
	L31.7,25.7z"/>
</svg>
