<?xml version="1.0" encoding="utf-8"?>
<!-- Generator: Adobe Illustrator 15.1.0, SVG Export Plug-In  -->
<!DOCTYPE svg PUBLIC "-//W3C//DTD SVG 1.1//EN" "http://www.w3.org/Graphics/SVG/1.1/DTD/svg11.dtd" [
	<!ENTITY ns_flows "http://ns.adobe.com/Flows/1.0/">
]>
<svg version="1.1"
	 xmlns="http://www.w3.org/2000/svg" xmlns:xlink="http://www.w3.org/1999/xlink" xmlns:a="http://ns.adobe.com/AdobeSVGViewerExtensions/3.0/"
	 x="0px" y="0px" width="48px" height="48px" viewBox="-9 -8 48 48" enable-background="new -9 -8 48 48" xml:space="preserve">
<defs>
</defs>
<path d="M27,0H3C1.4,0,0,1.4,0,3v26c0,1.7,1.4,3,3,3h24c1.7,0,3-1.3,3-3V3C30,1.4,28.7,0,27,0z M26,28H4V4h22V28z M8,18h14v2H8V18z
	 M8,22h14v2H8V22z M10,9c0-1.7,1.3-3,3-3s3,1.3,3,3s-1.3,3-3,3S10,10.7,10,9z M15,12h-4c-1.7,0-3,0.9-3,2v2h10v-2
	C18,12.9,16.7,12,15,12z"/>
</svg>
