<?xml version="1.0" encoding="utf-8"?>
<!-- Generator: Adobe Illustrator 15.1.0, SVG Export Plug-In  -->
<!DOCTYPE svg PUBLIC "-//W3C//DTD SVG 1.1//EN" "http://www.w3.org/Graphics/SVG/1.1/DTD/svg11.dtd" [
	<!ENTITY ns_flows "http://ns.adobe.com/Flows/1.0/">
]>
<svg version="1.1"
	 xmlns="http://www.w3.org/2000/svg" xmlns:xlink="http://www.w3.org/1999/xlink" xmlns:a="http://ns.adobe.com/AdobeSVGViewerExtensions/3.0/"
	 x="0px" y="0px" width="48px" height="48px" viewBox="-10 -8 48 48" enable-background="new -10 -8 48 48" xml:space="preserve">
<defs>
</defs>
<path d="M26.7,7.2C26,6.2,25,5.1,24,4s-2.2-2-3.1-2.7C19.2,0.1,18.4,0,18,0H2.5C1.1,0,0,1.1,0,2.5v27C0,30.9,1.1,32,2.5,32h23
	c1.4,0,2.5-1.1,2.5-2.5V10C28,9.6,27.9,8.8,26.7,7.2z M22.5,5.5c1,1,1.7,1.8,2.3,2.5H20V3.2C20.7,3.7,21.6,4.5,22.5,5.5L22.5,5.5z
	 M26,29.5c0,0.3-0.2,0.5-0.5,0.5h-23C2.2,30,2,29.8,2,29.5v-27C2,2.2,2.2,2,2.5,2C2.5,2,18,2,18,2v7c0,0.6,0.4,1,1,1h7V29.5z"/>
</svg>
