<?xml version="1.0" encoding="utf-8"?>
<!-- Generator: Adobe Illustrator 15.1.0, SVG Export Plug-In  -->
<!DOCTYPE svg PUBLIC "-//W3C//DTD SVG 1.1//EN" "http://www.w3.org/Graphics/SVG/1.1/DTD/svg11.dtd" [
	<!ENTITY ns_flows "http://ns.adobe.com/Flows/1.0/">
]>
<svg version="1.1"
	 xmlns="http://www.w3.org/2000/svg" xmlns:xlink="http://www.w3.org/1999/xlink" xmlns:a="http://ns.adobe.com/AdobeSVGViewerExtensions/3.0/"
	 x="0px" y="0px" width="48px" height="48px" viewBox="-8 -8 48 48" enable-background="new -8 -8 48 48" xml:space="preserve">
<defs>
</defs>
<path d="M0,0h4v32H0V0z"/>
<path d="M26,20.1c2.6,0,4.8-0.6,6-1.5v-16c-1.2,0.9-3.4,1.5-6,1.5s-4.8-0.6-6-1.5v16C21.2,19.5,23.4,20.1,26,20.1z"/>
<path d="M19,1c-1.5-0.6-3.6-1-6-1c-3,0-5.6,0.6-7,1.5v16c1.4-0.9,4-1.5,7-1.5c2.4,0,4.5,0.4,6,1V1z"/>
</svg>
