<?xml version="1.0" encoding="utf-8"?>
<!-- Generator: Adobe Illustrator 15.1.0, SVG Export Plug-In  -->
<!DOCTYPE svg PUBLIC "-//W3C//DTD SVG 1.1//EN" "http://www.w3.org/Graphics/SVG/1.1/DTD/svg11.dtd" [
	<!ENTITY ns_flows "http://ns.adobe.com/Flows/1.0/">
]>
<svg version="1.1"
	 xmlns="http://www.w3.org/2000/svg" xmlns:xlink="http://www.w3.org/1999/xlink" xmlns:a="http://ns.adobe.com/AdobeSVGViewerExtensions/3.0/"
	 x="0px" y="0px" width="48px" height="48px" viewBox="-8.4 -8 48 48" enable-background="new -8.4 -8 48 48" xml:space="preserve">
<defs>
</defs>
<path d="M27.5,17.6c0.1-0.5,0.1-1,0.1-1.6c0-0.5,0-1-0.1-1.6l3.4-2.6c0.3-0.2,0.4-0.7,0.2-1l-3.2-5.5c-0.2-0.3-0.6-0.5-1-0.3l-4,1.6
	c-0.8-0.6-1.7-1.2-2.7-1.6l-0.6-4.2C19.5,0.3,19.2,0,18.8,0h-6.4c-0.4,0-0.7,0.3-0.8,0.7L11,4.9c-1,0.4-1.9,0.9-2.7,1.6l-4-1.6
	c-0.4-0.1-0.8,0-1,0.3l-3.2,5.5c-0.2,0.3-0.1,0.8,0.2,1l3.4,2.6c-0.1,0.5-0.1,1-0.1,1.6c0,0.5,0,1,0.1,1.6l-3.4,2.6
	c-0.3,0.2-0.4,0.7-0.2,1l3.2,5.5c0.2,0.3,0.6,0.5,1,0.3l4-1.6c0.8,0.6,1.7,1.2,2.7,1.6l0.6,4.2c0.1,0.4,0.4,0.7,0.8,0.7h6.4
	c0.4,0,0.7-0.3,0.8-0.7l0.6-4.2c1-0.4,1.9-0.9,2.7-1.6l4,1.6c0.4,0.1,0.8,0,1-0.3l3.2-5.5c0.2-0.3,0.1-0.8-0.2-1L27.5,17.6z
	 M15.6,21.6c-3.1,0-5.6-2.5-5.6-5.6c0-3.1,2.5-5.6,5.6-5.6c3.1,0,5.6,2.5,5.6,5.6C21.2,19.1,18.7,21.6,15.6,21.6z"/>
</svg>
