<?xml version="1.0" encoding="utf-8"?>
<!-- Generator: Adobe Illustrator 15.1.0, SVG Export Plug-In  -->
<!DOCTYPE svg PUBLIC "-//W3C//DTD SVG 1.1//EN" "http://www.w3.org/Graphics/SVG/1.1/DTD/svg11.dtd" [
	<!ENTITY ns_flows "http://ns.adobe.com/Flows/1.0/">
]>
<svg version="1.1"
	 xmlns="http://www.w3.org/2000/svg" xmlns:xlink="http://www.w3.org/1999/xlink" xmlns:a="http://ns.adobe.com/AdobeSVGViewerExtensions/3.0/"
	 x="0px" y="0px" width="48px" height="48px" viewBox="-10.875 -19.5 48 48" enable-background="new -10.875 -19.5 48 48"
	 xml:space="preserve">
<defs>
</defs>
<polyline fill="#1D1D1B" points="0,9 0,6.75 2.25,6.75 2.25,9 "/>
<polyline fill="#1D1D1B" points="0,2.25 0,0 2.25,0 2.25,2.25 "/>
<polyline fill="#1D1D1B" points="6,9 6,6.75 8.25,6.75 8.25,9 "/>
<polyline fill="#1D1D1B" points="6,2.25 6,0 8.25,0 8.25,2.25 "/>
<polyline fill="#1D1D1B" points="12,9 12,6.75 14.25,6.75 14.25,9 "/>
<polyline fill="#1D1D1B" points="12,2.25 12,0 14.25,0 14.25,2.25 "/>
<polyline fill="#1D1D1B" points="18,9 18,6.75 20.25,6.75 20.25,9 "/>
<polyline fill="#1D1D1B" points="18,2.25 18,0 20.25,0 20.25,2.25 "/>
<polyline fill="#1D1D1B" points="24,9 24,6.75 26.25,6.75 26.25,9 "/>
<polyline fill="#1D1D1B" points="24,2.25 24,0 26.25,0 26.25,2.25 "/>
</svg>
