<?xml version="1.0" encoding="utf-8"?>
<!-- Generator: Adobe Illustrator 15.1.0, SVG Export Plug-In  -->
<!DOCTYPE svg PUBLIC "-//W3C//DTD SVG 1.1//EN" "http://www.w3.org/Graphics/SVG/1.1/DTD/svg11.dtd" [
	<!ENTITY ns_flows "http://ns.adobe.com/Flows/1.0/">
]>
<svg version="1.1"
	 xmlns="http://www.w3.org/2000/svg" xmlns:xlink="http://www.w3.org/1999/xlink" xmlns:a="http://ns.adobe.com/AdobeSVGViewerExtensions/3.0/"
	 x="0px" y="0px" width="48px" height="48px" viewBox="-19.5 -10.875 48 48" enable-background="new -19.5 -10.875 48 48"
	 xml:space="preserve">
<defs>
</defs>
<polyline fill="#1D1D1B" points="9,26.25 6.75,26.25 6.75,24 9,24 "/>
<polyline fill="#1D1D1B" points="2.25,26.25 0,26.25 0,24 2.25,24 "/>
<polyline fill="#1D1D1B" points="9,20.25 6.75,20.25 6.75,18 9,18 "/>
<polyline fill="#1D1D1B" points="2.25,20.25 0,20.25 0,18 2.25,18 "/>
<polyline fill="#1D1D1B" points="9,14.25 6.75,14.25 6.75,12 9,12 "/>
<polyline fill="#1D1D1B" points="2.25,14.25 0,14.25 0,12 2.25,12 "/>
<polyline fill="#1D1D1B" points="9,8.25 6.75,8.25 6.75,6 9,6 "/>
<polyline fill="#1D1D1B" points="2.25,8.25 0,8.25 0,6 2.25,6 "/>
<polyline fill="#1D1D1B" points="9,2.25 6.75,2.25 6.75,0 9,0 "/>
<polyline fill="#1D1D1B" points="2.25,2.25 0,2.25 0,0 2.25,0 "/>
</svg>
