<?xml version="1.0" encoding="utf-8"?>
<!-- Generator: Adobe Illustrator 15.1.0, SVG Export Plug-In  -->
<!DOCTYPE svg PUBLIC "-//W3C//DTD SVG 1.1//EN" "http://www.w3.org/Graphics/SVG/1.1/DTD/svg11.dtd" [
	<!ENTITY ns_flows "http://ns.adobe.com/Flows/1.0/">
]>
<svg version="1.1"
	 xmlns="http://www.w3.org/2000/svg" xmlns:xlink="http://www.w3.org/1999/xlink" xmlns:a="http://ns.adobe.com/AdobeSVGViewerExtensions/3.0/"
	 x="0px" y="0px" width="48px" height="48px" viewBox="-8 -8 48 48" enable-background="new -8 -8 48 48" xml:space="preserve">
<defs>
</defs>
<path d="M22,0c-5.5,0-10,4.5-10,10c0,0.6,0.1,1.2,0.2,1.8L0,24v6c0,1.1,0.9,2,2,2h2v-2h4v-4h4v-4h4l2.6-2.6c1.1,0.4,2.2,0.6,3.4,0.6
	c5.5,0,10-4.5,10-10S27.5,0,22,0z M25,10c-1.7,0-3-1.3-3-3s1.3-3,3-3s3,1.3,3,3S26.7,10,25,10z"/>
</svg>
