<?xml version="1.0" encoding="utf-8"?>
<!-- Generator: Adobe Illustrator 15.1.0, SVG Export Plug-In  -->
<!DOCTYPE svg PUBLIC "-//W3C//DTD SVG 1.1//EN" "http://www.w3.org/Graphics/SVG/1.1/DTD/svg11.dtd" [
	<!ENTITY ns_flows "http://ns.adobe.com/Flows/1.0/">
]>
<svg version="1.1"
	 xmlns="http://www.w3.org/2000/svg" xmlns:xlink="http://www.w3.org/1999/xlink" xmlns:a="http://ns.adobe.com/AdobeSVGViewerExtensions/3.0/"
	 x="0px" y="0px" width="48px" height="48px" viewBox="-8 -8.8 48 48" enable-background="new -8 -8.8 48 48" xml:space="preserve">
<defs>
</defs>
<path d="M3.7,24.8l2.1,2.1l2.6-2.6l-2.1-2.1L3.7,24.8L3.7,24.8z M14.5,30.5h2.9v-4.3h-2.9V30.5z M4.4,13.1H0V16h4.4V13.1z M20.4,7V0
	h-8.7v7C9,8.5,7.3,11.3,7.3,14.5c0,4.8,3.9,8.7,8.7,8.7s8.7-3.9,8.7-8.7C24.7,11.3,23,8.5,20.4,7z M27.6,13.1V16H32v-2.9H27.6z
	 M23.6,24.2l2.6,2.6l2.1-2.1l-2.6-2.6L23.6,24.2L23.6,24.2z"/>
</svg>
