<?xml version="1.0" encoding="utf-8"?>
<!-- Generator: Adobe Illustrator 15.1.0, SVG Export Plug-In  -->
<!DOCTYPE svg PUBLIC "-//W3C//DTD SVG 1.1//EN" "http://www.w3.org/Graphics/SVG/1.1/DTD/svg11.dtd" [
	<!ENTITY ns_flows "http://ns.adobe.com/Flows/1.0/">
]>
<svg version="1.1"
	 xmlns="http://www.w3.org/2000/svg" xmlns:xlink="http://www.w3.org/1999/xlink" xmlns:a="http://ns.adobe.com/AdobeSVGViewerExtensions/3.0/"
	 x="0px" y="0px" width="48px" height="48px" viewBox="-8 -8 48 48" enable-background="new -8 -8 48 48" xml:space="preserve">
<defs>
</defs>
<path d="M13.7,20c-0.4,0-0.9-0.2-1.2-0.5c-3-3-3-8,0-11l6.1-6.1C20.1,0.8,22.1,0,24.2,0c2.1,0,4,0.8,5.5,2.3c3,3,3,8,0,11l-2.8,2.8
	c-0.6,0.6-1.7,0.6-2.4,0c-0.7-0.6-0.7-1.7,0-2.4l2.8-2.8c1.7-1.7,1.7-4.6,0-6.3c-0.8-0.8-2-1.3-3.2-1.3c-1.2,0-2.3,0.5-3.2,1.3
	l-6.1,6.1c-1.7,1.7-1.7,4.6,0,6.3c0.6,0.6,0.6,1.7,0,2.4C14.6,19.8,14.1,20,13.7,20L13.7,20z"/>
<path d="M7.8,32c-2.1,0-4-0.8-5.5-2.3c-3-3-3-8,0-11l2.8-2.8c0.6-0.6,1.7-0.6,2.4,0c0.6,0.7,0.6,1.7,0,2.4L4.6,21
	c-1.7,1.7-1.7,4.6,0,6.3c0.8,0.8,2,1.3,3.2,1.3c1.2,0,2.3-0.5,3.2-1.3l6.1-6.1c1.7-1.7,1.7-4.6,0-6.3c-0.6-0.6-0.6-1.7,0-2.4
	s1.7-0.6,2.4,0c3,3,3,8,0,11l-6.1,6.1C11.9,31.2,9.9,32,7.8,32L7.8,32z"/>
</svg>
