<?xml version="1.0" encoding="utf-8"?>
<!-- Generator: Adobe Illustrator 15.1.0, SVG Export Plug-In  -->
<!DOCTYPE svg PUBLIC "-//W3C//DTD SVG 1.1//EN" "http://www.w3.org/Graphics/SVG/1.1/DTD/svg11.dtd" [
	<!ENTITY ns_flows "http://ns.adobe.com/Flows/1.0/">
]>
<svg version="1.1"
	 xmlns="http://www.w3.org/2000/svg" xmlns:xlink="http://www.w3.org/1999/xlink" xmlns:a="http://ns.adobe.com/AdobeSVGViewerExtensions/3.0/"
	 x="0px" y="0px" width="48px" height="48px" viewBox="-10 -8 48 48" enable-background="new -10 -8 48 48" xml:space="preserve">
<defs>
</defs>
<path d="M26,4v26H5c-1.7,0-3-1.3-3-3s1.3-3,3-3h19V0H4C1.8,0,0,1.8,0,4v24c0,2.2,1.8,4,4,4h24V4H26z"/>
<path d="M5,26L5,26C5,26,5,26,5,26c-0.6,0-1,0.4-1,1s0.4,1,1,1c0,0,0,0,0,0l0,0h19v-2H5L5,26z"/>
</svg>
