<?xml version="1.0" encoding="utf-8"?>
<!-- Generator: Adobe Illustrator 15.1.0, SVG Export Plug-In  -->
<!DOCTYPE svg PUBLIC "-//W3C//DTD SVG 1.1//EN" "http://www.w3.org/Graphics/SVG/1.1/DTD/svg11.dtd" [
	<!ENTITY ns_flows "http://ns.adobe.com/Flows/1.0/">
]>
<svg version="1.1"
	 xmlns="http://www.w3.org/2000/svg" xmlns:xlink="http://www.w3.org/1999/xlink" xmlns:a="http://ns.adobe.com/AdobeSVGViewerExtensions/3.0/"
	 x="0px" y="0px" width="48px" height="48px" viewBox="-8 -9 48 48" enable-background="new -8 -9 48 48" xml:space="preserve">
<defs>
</defs>
<path d="M13.8,26.4c0-5.4,3.4-10.1,8.3-11.9c0.6-1.3,0.9-2.8,0.9-4.2C23,4.6,23,0,16.1,0S9.2,4.6,9.2,10.3c0,3.6,2.1,7.1,4.6,8.5
	v1.9C6,21.4,0,25.2,0,29.9h14.3C13.9,28.8,13.8,27.6,13.8,26.4L13.8,26.4z"/>
<path d="M26.4,16.1c-5.7,0-10.3,4.6-10.3,10.3s4.6,10.3,10.3,10.3s10.3-4.6,10.3-10.3S32.1,16.1,26.4,16.1z M32.2,27.6h-4.6v4.6
	h-2.3v-4.6h-4.6v-2.3h4.6v-4.6h2.3v4.6h4.6V27.6z"/>
</svg>
