<?xml version="1.0" encoding="utf-8"?>
<!-- Generator: Adobe Illustrator 15.1.0, SVG Export Plug-In  -->
<!DOCTYPE svg PUBLIC "-//W3C//DTD SVG 1.1//EN" "http://www.w3.org/Graphics/SVG/1.1/DTD/svg11.dtd" [
	<!ENTITY ns_flows "http://ns.adobe.com/Flows/1.0/">
]>
<svg version="1.1"
	 xmlns="http://www.w3.org/2000/svg" xmlns:xlink="http://www.w3.org/1999/xlink" xmlns:a="http://ns.adobe.com/AdobeSVGViewerExtensions/3.0/"
	 x="0px" y="0px" width="48px" height="48px" viewBox="-8 -8 48 48" enable-background="new -8 -8 48 48" xml:space="preserve">
<defs>
</defs>
<path d="M31,12H20V1c0-0.6-0.4-1-1-1h-6c-0.6,0-1,0.4-1,1v11H1c-0.6,0-1,0.4-1,1v6c0,0.6,0.4,1,1,1h11v11c0,0.6,0.4,1,1,1h6
	c0.6,0,1-0.4,1-1V20h11c0.6,0,1-0.4,1-1v-6C32,12.4,31.6,12,31,12z"/>
</svg>
