<?xml version="1.0" encoding="utf-8"?>
<!-- Generator: Adobe Illustrator 15.1.0, SVG Export Plug-In  -->
<!DOCTYPE svg PUBLIC "-//W3C//DTD SVG 1.1//EN" "http://www.w3.org/Graphics/SVG/1.1/DTD/svg11.dtd" [
	<!ENTITY ns_flows "http://ns.adobe.com/Flows/1.0/">
]>
<svg version="1.1"
	 xmlns="http://www.w3.org/2000/svg" xmlns:xlink="http://www.w3.org/1999/xlink" xmlns:a="http://ns.adobe.com/AdobeSVGViewerExtensions/3.0/"
	 x="0px" y="0px" width="48px" height="48px" viewBox="-10 -8 48 48" enable-background="new -10 -8 48 48" xml:space="preserve">
<defs>
</defs>
<path d="M18,4.6v4.2c1.1,0.5,2.2,1.2,3.1,2.1C23,12.8,24,15.3,24,18s-1,5.2-2.9,7.1S16.7,28,14,28s-5.2-1-7.1-2.9
	C5,23.2,4,20.7,4,18s1-5.2,2.9-7.1C7.8,10,8.9,9.3,10,8.8V4.6C4.2,6.3,0,11.7,0,18c0,7.7,6.3,14,14,14c7.7,0,14-6.3,14-14
	C28,11.7,23.8,6.3,18,4.6z M12,0h4v16h-4V0z"/>
</svg>
