<?xml version="1.0" encoding="utf-8"?>
<!-- Generator: Adobe Illustrator 15.1.0, SVG Export Plug-In  -->
<!DOCTYPE svg PUBLIC "-//W3C//DTD SVG 1.1//EN" "http://www.w3.org/Graphics/SVG/1.1/DTD/svg11.dtd" [
	<!ENTITY ns_flows "http://ns.adobe.com/Flows/1.0/">
]>
<svg version="1.1"
	 xmlns="http://www.w3.org/2000/svg" xmlns:xlink="http://www.w3.org/1999/xlink" xmlns:a="http://ns.adobe.com/AdobeSVGViewerExtensions/3.0/"
	 x="0px" y="0px" width="48px" height="48px" viewBox="-8 -9.6 48 48" enable-background="new -8 -9.6 48 48" xml:space="preserve">
<defs>
</defs>
<path d="M27.2,8H4.8C2.2,8,0,10.2,0,12.8v9.6h6.4v6.4h19.2v-6.4H32v-9.6C32,10.2,29.8,8,27.2,8z M22.4,25.6H9.6v-8h12.8V25.6z
	 M27.2,14.4c-0.9,0-1.6-0.7-1.6-1.6c0-0.9,0.7-1.6,1.6-1.6c0.9,0,1.6,0.7,1.6,1.6C28.8,13.7,28.1,14.4,27.2,14.4z M25.6,0H6.4v6.4
	h19.2V0z"/>
</svg>
