<?xml version="1.0" encoding="utf-8"?>
<!-- Generator: Adobe Illustrator 15.1.0, SVG Export Plug-In  -->
<!DOCTYPE svg PUBLIC "-//W3C//DTD SVG 1.1//EN" "http://www.w3.org/Graphics/SVG/1.1/DTD/svg11.dtd" [
	<!ENTITY ns_flows "http://ns.adobe.com/Flows/1.0/">
]>
<svg version="1.1"
	 xmlns="http://www.w3.org/2000/svg" xmlns:xlink="http://www.w3.org/1999/xlink" xmlns:a="http://ns.adobe.com/AdobeSVGViewerExtensions/3.0/"
	 x="0px" y="0px" width="48px" height="48px" viewBox="-8 -2 48 48" enable-background="new -8 -2 48 48" xml:space="preserve">
<defs>
</defs>
<path d="M16,6V0L8,8l8,8v-6c6.6,0,12,5.4,12,12c0,2-0.5,3.9-1.4,5.6l2.9,2.9C31.1,28,32,25.1,32,22C32,13.2,24.8,6,16,6z M16,34
	C9.4,34,4,28.6,4,22c0-2,0.5-3.9,1.4-5.6l-2.9-2.9C0.9,16,0,18.9,0,22c0,8.8,7.2,16,16,16v6l8-8l-8-8V34z"/>
</svg>
