<?xml version="1.0" encoding="utf-8"?>
<!-- Generator: Adobe Illustrator 15.1.0, SVG Export Plug-In  -->
<!DOCTYPE svg PUBLIC "-//W3C//DTD SVG 1.1//EN" "http://www.w3.org/Graphics/SVG/1.1/DTD/svg11.dtd" [
	<!ENTITY ns_flows "http://ns.adobe.com/Flows/1.0/">
]>
<svg version="1.1"
	 xmlns="http://www.w3.org/2000/svg" xmlns:xlink="http://www.w3.org/1999/xlink" xmlns:a="http://ns.adobe.com/AdobeSVGViewerExtensions/3.0/"
	 x="0px" y="0px" width="48px" height="48px" viewBox="-8 -8 48 48" enable-background="new -8 -8 48 48" xml:space="preserve">
<defs>
</defs>
<path d="M12.2,9c0.4-0.8,0.6-1.7,0.6-2.6C12.8,2.9,9.9,0,6.4,0C2.9,0,0,2.9,0,6.4s2.9,6.4,6.4,6.4c0.9,0,1.8-0.2,2.6-0.6l3.8,3.8
	L9,19.8c-0.8-0.4-1.7-0.6-2.6-0.6c-3.5,0-6.4,2.9-6.4,6.4C0,29.1,2.9,32,6.4,32c3.5,0,6.4-2.9,6.4-6.4c0-0.9-0.2-1.8-0.6-2.6
	l3.8-3.8l11.2,11.2H32v-1.6L12.2,9L12.2,9z M6.4,9.6c-1.8,0-3.2-1.4-3.2-3.2s1.4-3.2,3.2-3.2s3.2,1.4,3.2,3.2S8.2,9.6,6.4,9.6z
	 M6.4,28.8c-1.8,0-3.2-1.4-3.2-3.2c0-1.8,1.4-3.2,3.2-3.2s3.2,1.4,3.2,3.2C9.6,27.4,8.2,28.8,6.4,28.8z M16,16.8
	c-0.4,0-0.8-0.4-0.8-0.8s0.4-0.8,0.8-0.8s0.8,0.4,0.8,0.8S16.4,16.8,16,16.8z M27.2,1.6l-9.6,9.6l3.2,3.2L32,3.2V1.6H27.2z"/>
</svg>
