<?xml version="1.0" encoding="utf-8"?>
<!-- Generator: Adobe Illustrator 15.1.0, SVG Export Plug-In  -->
<!DOCTYPE svg PUBLIC "-//W3C//DTD SVG 1.1//EN" "http://www.w3.org/Graphics/SVG/1.1/DTD/svg11.dtd" [
	<!ENTITY ns_flows "http://ns.adobe.com/Flows/1.0/">
]>
<svg version="1.1"
	 xmlns="http://www.w3.org/2000/svg" xmlns:xlink="http://www.w3.org/1999/xlink" xmlns:a="http://ns.adobe.com/AdobeSVGViewerExtensions/3.0/"
	 x="0px" y="0px" width="48px" height="48px" viewBox="-8 -8 48 48" enable-background="new -8 -8 48 48" xml:space="preserve">
<defs>
</defs>
<path d="M31,27.2l-7.6-6.4c-0.8-0.7-1.6-1-2.3-1C22.9,17.7,24,15,24,12c0-6.6-5.4-12-12-12C5.4,0,0,5.4,0,12c0,6.6,5.4,12,12,12
	c3,0,5.7-1.1,7.8-2.9c0,0.7,0.3,1.5,1,2.3l6.4,7.6c1.1,1.2,2.9,1.3,4,0.2C32.3,30.1,32.2,28.3,31,27.2L31,27.2z M12,20
	c-4.4,0-8-3.6-8-8c0-4.4,3.6-8,8-8c4.4,0,8,3.6,8,8C20,16.4,16.4,20,12,20z"/>
</svg>
