<?xml version="1.0" encoding="utf-8"?>
<!-- Generator: Adobe Illustrator 15.1.0, SVG Export Plug-In  -->
<!DOCTYPE svg PUBLIC "-//W3C//DTD SVG 1.1//EN" "http://www.w3.org/Graphics/SVG/1.1/DTD/svg11.dtd" [
	<!ENTITY ns_flows "http://ns.adobe.com/Flows/1.0/">
]>
<svg version="1.1"
	 xmlns="http://www.w3.org/2000/svg" xmlns:xlink="http://www.w3.org/1999/xlink" xmlns:a="http://ns.adobe.com/AdobeSVGViewerExtensions/3.0/"
	 x="0px" y="0px" width="48px" height="48px" viewBox="-8 -8 48 48" enable-background="new -8 -8 48 48" xml:space="preserve">
<defs>
</defs>
<path d="M30.5,0H18.2c-0.8,0-2,0.5-2.6,1.1L0.4,16.3c-0.6,0.6-0.6,1.6,0,2.2l13.1,13.1c0.6,0.6,1.6,0.6,2.2,0l15.2-15.2
	c0.6-0.6,1.1-1.8,1.1-2.6V1.5C32,0.7,31.3,0,30.5,0L30.5,0z M22.8,12.2c-1.7,0-3.1-1.4-3.1-3.1s1.4-3.1,3.1-3.1
	c1.7,0,3.1,1.4,3.1,3.1S24.5,12.2,22.8,12.2z"/>
</svg>
