<?xml version="1.0" encoding="utf-8"?>
<!-- Generator: Adobe Illustrator 15.1.0, SVG Export Plug-In  -->
<!DOCTYPE svg PUBLIC "-//W3C//DTD SVG 1.1//EN" "http://www.w3.org/Graphics/SVG/1.1/DTD/svg11.dtd" [
	<!ENTITY ns_flows "http://ns.adobe.com/Flows/1.0/">
]>
<svg version="1.1"
	 xmlns="http://www.w3.org/2000/svg" xmlns:xlink="http://www.w3.org/1999/xlink" xmlns:a="http://ns.adobe.com/AdobeSVGViewerExtensions/3.0/"
	 x="0px" y="0px" width="48px" height="48px" viewBox="-11 -8 48 48" enable-background="new -11 -8 48 48" xml:space="preserve">
<defs>
</defs>
<path d="M2,10v20c0,1.1,0.9,2,2,2h18c1.1,0,2-0.9,2-2V10H2z M8,28H6V14h2V28z M12,28h-2V14h2V28z M16,28h-2V14h2V28z M20,28h-2V14h2
	V28z"/>
<path d="M24.5,4H18V1.5C18,0.7,17.3,0,16.5,0h-7C8.7,0,8,0.7,8,1.5V4H1.5C0.7,4,0,4.7,0,5.5V8h26V5.5C26,4.7,25.3,4,24.5,4z M16,4
	h-6V2h6V4z"/>
</svg>
