<?xml version="1.0" encoding="utf-8"?>
<!-- Generator: Adobe Illustrator 15.1.0, SVG Export Plug-In  -->
<!DOCTYPE svg PUBLIC "-//W3C//DTD SVG 1.1//EN" "http://www.w3.org/Graphics/SVG/1.1/DTD/svg11.dtd" [
	<!ENTITY ns_flows "http://ns.adobe.com/Flows/1.0/">
]>
<svg version="1.1"
	 xmlns="http://www.w3.org/2000/svg" xmlns:xlink="http://www.w3.org/1999/xlink" xmlns:a="http://ns.adobe.com/AdobeSVGViewerExtensions/3.0/"
	 x="0px" y="0px" width="48px" height="48px" viewBox="-8.3 -8 48 48" enable-background="new -8.3 -8 48 48" xml:space="preserve">
<defs>
</defs>
<path d="M25.7,27.4c-0.4,0-0.9-0.2-1.2-0.5c-0.7-0.7-0.7-1.8,0-2.4c4.7-4.7,4.7-12.3,0-17c-0.7-0.7-0.7-1.8,0-2.4
	c0.7-0.7,1.8-0.7,2.4,0c2.9,2.9,4.5,6.8,4.5,10.9s-1.6,8-4.5,10.9C26.6,27.2,26.1,27.4,25.7,27.4L25.7,27.4L25.7,27.4z M19.6,24.2
	c-0.4,0-0.9-0.2-1.2-0.5c-0.7-0.7-0.7-1.8,0-2.4c2.9-2.9,2.9-7.6,0-10.5c-0.7-0.7-0.7-1.8,0-2.4s1.8-0.7,2.4,0
	c4.2,4.2,4.2,11.1,0,15.4C20.5,24,20,24.2,19.6,24.2z"/>
<path d="M14.9,32c-0.3,0-0.6-0.1-0.8-0.3l-8.8-8.8H1.1c-0.6,0-1.1-0.5-1.1-1.1V10.3c0-0.6,0.5-1.1,1.1-1.1h4.1L14,0.3
	c0.3-0.3,0.8-0.4,1.2-0.2C15.7,0.3,16,0.7,16,1.1v29.7c0,0.5-0.3,0.9-0.7,1.1C15.2,32,15,32,14.9,32z"/>
</svg>
