<?xml version="1.0" encoding="utf-8"?>
<!-- Generator: Adobe Illustrator 15.1.0, SVG Export Plug-In  -->
<!DOCTYPE svg PUBLIC "-//W3C//DTD SVG 1.1//EN" "http://www.w3.org/Graphics/SVG/1.1/DTD/svg11.dtd" [
	<!ENTITY ns_flows "http://ns.adobe.com/Flows/1.0/">
]>
<svg version="1.1"
	 xmlns="http://www.w3.org/2000/svg" xmlns:xlink="http://www.w3.org/1999/xlink" xmlns:a="http://ns.adobe.com/AdobeSVGViewerExtensions/3.0/"
	 x="0px" y="0px" width="48px" height="48px" viewBox="-8 -8 48 48" enable-background="new -8 -8 48 48" xml:space="preserve">
<defs>
</defs>
<path d="M31.3,25.6L16.9,13.2C17.6,12,18,10.5,18,9c0-5-4-9-9-9C8.1,0,7.2,0.1,6.4,0.4l5.2,5.2c0.8,0.8,0.8,2.1,0,2.8l-3.2,3.2
	c-0.8,0.8-2.1,0.8-2.8,0L0.4,6.4C0.1,7.2,0,8.1,0,9c0,5,4,9,9,9c1.5,0,3-0.4,4.2-1.1l12.3,14.4c0.7,0.8,1.9,0.9,2.7,0.1l3.2-3.2
	C32.2,27.5,32.2,26.3,31.3,25.6L31.3,25.6z"/>
</svg>
